<svg width="200" height="144" viewBox="0 0 200 144" fill="none" xmlns="http://www.w3.org/2000/svg">
<path d="M110 55.3334H120C122.189 55.3334 124.356 55.7645 126.378 56.602C128.4 57.4396 130.238 58.6673 131.785 60.2149C133.333 61.7626 134.56 63.5999 135.398 65.622C136.236 67.6441 136.667 69.8113 136.667 72C136.667 74.1887 136.236 76.356 135.398 78.3781C134.56 80.4002 133.333 82.2375 131.785 83.7852C130.238 85.3328 128.4 86.5605 126.378 87.398C124.356 88.2356 122.189 88.6667 120 88.6667H110M90 88.6667H80C77.8113 88.6667 75.6441 88.2356 73.622 87.398C71.5999 86.5605 69.7626 85.3328 68.2149 83.7852C65.0893 80.6595 63.3334 76.4203 63.3334 72C63.3334 67.5798 65.0893 63.3405 68.2149 60.2149C71.3405 57.0893 75.5798 55.3334 80 55.3334H90" stroke="#141414" stroke-width="2" stroke-linecap="round" stroke-linejoin="round"/>
<path d="M86.6666 72H113.333" stroke="#141414" stroke-width="2" stroke-linecap="round" stroke-linejoin="round"/>
</svg>
