<svg width="62" height="24" viewBox="0 0 62 24" fill="none" xmlns="http://www.w3.org/2000/svg">
<path d="M8.736 8.12C11.0613 8.12 12.96 8.83467 14.432 10.264C15.904 11.672 16.64 13.5067 16.64 15.768C16.64 18.0293 15.904 19.8747 14.432 21.304C12.96 22.712 11.0613 23.416 8.736 23.416C6.38933 23.416 4.48 22.712 3.008 21.304C1.536 19.8747 0.8 18.0293 0.8 15.768C0.8 14.0613 1.248 12.5573 2.144 11.256L9.248 0.599998H13.44L8.32 8.12H8.736ZM8.736 19.928C9.97333 19.928 10.9867 19.5547 11.776 18.808C12.5653 18.04 12.96 17.0267 12.96 15.768C12.96 14.5093 12.5653 13.5067 11.776 12.76C10.9867 11.992 9.97333 11.608 8.736 11.608C7.47733 11.608 6.45333 11.992 5.664 12.76C4.87467 13.5067 4.48 14.5093 4.48 15.768C4.48 17.0267 4.87467 18.04 5.664 18.808C6.45333 19.5547 7.47733 19.928 8.736 19.928ZM33.9815 20.248C32.4455 22.36 30.2908 23.416 27.5175 23.416C24.7442 23.416 22.5788 22.36 21.0215 20.248C19.4855 18.136 18.7175 15.32 18.7175 11.8C18.7175 8.28 19.4855 5.464 21.0215 3.352C22.5788 1.24 24.7442 0.183998 27.5175 0.183998C30.2908 0.183998 32.4455 1.24 33.9815 3.352C35.5388 5.464 36.3175 8.28 36.3175 11.8C36.3175 15.32 35.5388 18.136 33.9815 20.248ZM27.5175 19.832C29.1815 19.832 30.4508 19.1387 31.3255 17.752C32.2002 16.3653 32.6375 14.3813 32.6375 11.8C32.6375 9.21867 32.2002 7.23467 31.3255 5.848C30.4508 4.46133 29.1815 3.768 27.5175 3.768C25.8748 3.768 24.6055 4.46133 23.7095 5.848C22.8348 7.23467 22.3975 9.21867 22.3975 11.8C22.3975 14.3813 22.8348 16.3653 23.7095 17.752C24.6055 19.1387 25.8748 19.832 27.5175 19.832ZM61.2738 0.599998V23H57.5938V7.032L50.7778 18.296H50.3298L43.5138 7V23H39.8338V0.599998H43.8018L50.5538 11.8L57.3378 0.599998H61.2738Z" fill="black"/>
</svg>
